<?xml version="1.0" encoding="utf-8"?>
<!-- Generator: Adobe Illustrator 23.0.1, SVG Export Plug-In . SVG Version: 6.00 Build 0)  -->
<svg version="1.1" id="Capa_1" xmlns="http://www.w3.org/2000/svg" xmlns:xlink="http://www.w3.org/1999/xlink" x="0px" y="0px"
	 viewBox="0 0 435.5 435.5" style="enable-background:new 0 0 435.5 435.5;" xml:space="preserve">
<style type="text/css">
	.st0{fill:#FFFFFF;}
</style>
<g>
	<g>
		<path class="st0" d="M403.5,101.9c-4.1-5.1-8.9-9.7-14.2-13.8c0.7,13.1-0.5,27.1-3.7,41.9c-8.6,40.4-29.3,74.8-59.7,99.3
			c-30.4,24.5-68.3,37.5-109.7,37.5H156l-19.5,91.5c-3.8,18-19.9,31-38.3,31H70.9L66,411.8c-1.3,5.8,0.2,11.8,3.9,16.5
			c3.7,4.6,9.3,7.3,15.3,7.3h66.5c9.2,0,17.2-6.5,19.2-15.5l22.8-107h76.2c36.9,0,70.5-11.5,97.4-33.2
			c26.9-21.7,45.1-52.2,52.8-88.2C427.8,155.3,422.3,125.1,403.5,101.9z"/>
		<path class="st0" d="M117.3,354.2l22.8-107h76.2c36.9,0,70.5-11.5,97.4-33.2c26.9-21.7,45.1-52.2,52.8-88.2
			c7.8-36.4,2.2-66.6-16.6-89.8C332,13.8,301.2,0,269.6,0h-166c-9.2,0-17.2,6.4-19.1,15.4l-72,330.5c-1.3,5.8,0.2,11.8,3.9,16.5
			c3.7,4.6,9.3,7.3,15.2,7.3h66.5C107.4,369.7,115.4,363.2,117.3,354.2z M178.2,75.3h52.2c12.3,0,23.3,5.1,30.1,14.1
			c7.3,9.5,9.4,22.7,5.9,36.2c0,0.2-0.1,0.3-0.1,0.5c-6.6,27.7-33.9,50.3-60.9,50.3h-50.1L178.2,75.3z"/>
	</g>
</g>
</svg>
